<svg id="Layer_1" data-name="Layer 1" xmlns="http://www.w3.org/2000/svg" viewBox="0 0 240 240"><defs><style>.cls-1{fill:#ca181a;}.cls-2{fill:#fff;}</style></defs><circle class="cls-1" cx="120" cy="120" r="92.04"/><path class="cls-2" d="M138.5,182c-25,12-57.4-4.68-62-31.79-.1-.6-.18-1.19-.27-1.79-.82-5.24.21-9.37,5.87-11.51,3-1.14,5.67-3.11,8.47-4.76,4-2.36,4.26-4,1-7.16-9.26-9-13.45-19.92-13.33-32.71.22-20.93,18.91-38.54,45.09-38.23,10.1.33,21.34,6.26,28.24,19.3,2.66,5,2,7.15-2.6,10.32-2.77,1.92-5.59,3.74-8.34,5.68-3.56,2.51-3.64,4.19-.23,7,8,6.55,15,14,19.07,23.59C170.1,145.29,161.68,170.87,138.5,182Z"/></svg>