<svg id="Layer_1" data-name="Layer 1" xmlns="http://www.w3.org/2000/svg" viewBox="0 0 183.55 183.55"><defs><style>.cls-1{fill:#0878fb;}.cls-2{fill:#fff;}</style></defs><rect class="cls-1" width="183.55" height="183.55" rx="21.1"/><path class="cls-2" d="M141.82,64.25h-35v-10h35Zm8.63,50c-2.21,6.49-10.15,15-25.52,15s-27.85-8.66-27.85-28.4c0-19.57,11.64-29.63,27.36-29.63,15.42,0,24.84,8.92,26.89,22.15a67,67,0,0,1,.48,10.71H111.64c.65,16.07,17.43,16.57,23,10.15ZM112,94.28h24.85c-.53-7.74-5.69-11.11-12.4-11.11C117.11,83.17,113.05,87,112,94.28Zm-47.91,35H31.73V54.35H66.52c27.4.41,27.92,27.24,13.61,34.56C97.45,95.21,98,129.25,64.08,129.25Zm-17.34-45H64.67c12.55,0,14.55-15-1.56-15H46.74Zm17,15h-17v15.09H63.46C78.74,114.37,77.81,99.28,63.71,99.28Z"/></svg>