<svg id="Layer_1" data-name="Layer 1" xmlns="http://www.w3.org/2000/svg" viewBox="0 0 240 240"><defs><style>.cls-1{fill:#00005b;}.cls-2{fill:#99f;}</style></defs><path class="cls-1" d="M197.5,3H42.5A42.5,42.5,0,0,0,0,45.5v149A42.5,42.5,0,0,0,42.5,237h155A42.5,42.5,0,0,0,240,194.5V45.5A42.5,42.5,0,0,0,197.5,3Z"/><path class="cls-2" d="M96.43,143H59.24l-7.57,23.56A1.87,1.87,0,0,1,49.74,168H30.9c-1.07,0-1.45-.59-1.13-1.77L62,73.87c.32-1,.65-1.91,1-3.15a33.91,33.91,0,0,0,.64-6.52,1,1,0,0,1,.28-.84,1.06,1.06,0,0,1,.39-.24,1,1,0,0,1,.46,0h25.6c.75,0,1.18.27,1.28.8l36.55,102.5c.32,1.08,0,1.62-1,1.61H106.24a1.45,1.45,0,0,1-1-.26,1.49,1.49,0,0,1-.6-.87ZM65,123.13H90.48c-.65-2.14-1.4-4.56-2.26-7.24s-1.77-5.55-2.74-8.61-1.93-6.12-2.9-9.18-1.85-6-2.66-8.85-1.53-5.45-2.17-7.81h-.16a130.42,130.42,0,0,1-3.38,12.88q-2.25,7.23-4.59,14.81T65,123.13Z"/><path class="cls-2" d="M187.4,133.82H155.68a22.61,22.61,0,0,0,3.06,8.87,16.47,16.47,0,0,0,7.32,6,30.63,30.63,0,0,0,12.8,2.51,56.48,56.48,0,0,0,10.38-1.14,37.78,37.78,0,0,0,8.93-2.33c.54-.42.81-.16.81.81v15.29a2.5,2.5,0,0,1-.24,1.21,2.31,2.31,0,0,1-.73.73,40.75,40.75,0,0,1-10,3A70.89,70.89,0,0,1,173.87,170q-11.43,0-19.16-3.55A34.09,34.09,0,0,1,142.15,157a37.1,37.1,0,0,1-6.92-13.13,51.69,51.69,0,0,1-2.09-14.57,50.81,50.81,0,0,1,2.49-15.86,41.35,41.35,0,0,1,7.49-13.68,35.87,35.87,0,0,1,12.08-9.5c4.72-2.31,10.3-3.14,16.74-3.14a36.42,36.42,0,0,1,15.54,3.06,27.38,27.38,0,0,1,10.54,8,36.63,36.63,0,0,1,6,11.35,40.73,40.73,0,0,1,1.94,12.24c0,2.36-.09,4.51-.24,6.44s-.3,3.33-.41,4.19a1.46,1.46,0,0,1-.48.92,1.5,1.5,0,0,1-1,.37q-1,0-3.3.24t-5.8.32C192.41,134.22,190,133.82,187.4,133.82Zm-31.72-14.66h21.09c2.58,0,4.48,0,5.72-.08a5.68,5.68,0,0,0,2.33-.77v-1a13,13,0,0,0-.64-3.7,13.18,13.18,0,0,0-13.05-9.18A14,14,0,0,0,157.85,112a23.11,23.11,0,0,0-2.17,7.13Z"/></svg>