<svg id="Layer_1" data-name="Layer 1" xmlns="http://www.w3.org/2000/svg" xmlns:xlink="http://www.w3.org/1999/xlink" viewBox="0 0 120 120"><defs><style>.cls-1{fill:#20244d;}.cls-2{fill:#9294c9;}.cls-3{fill:none;stroke-linecap:round;stroke-miterlimit:10;stroke-width:5px;stroke:url(#linear-gradient);}</style><linearGradient id="linear-gradient" x1="21.21" y1="63.63" x2="98.81" y2="63.34" gradientUnits="userSpaceOnUse"><stop offset="0" stop-color="#6bbfa2"/><stop offset="1" stop-color="#8e6aab"/></linearGradient></defs><circle class="cls-1" cx="60" cy="60" r="18.09"/><path class="cls-2" d="M57.16,62.88H52.22l-1,3.13a.24.24,0,0,1-.25.19H48.45c-.14,0-.19-.08-.15-.23L52.58,53.7c.05-.14.09-.26.14-.42a5.12,5.12,0,0,0,.08-.87.15.15,0,0,1,0-.11.05.05,0,0,1,0,0,.06.06,0,0,1,.06,0h3.4c.1,0,.16,0,.17.1L61.38,66c0,.15,0,.22-.13.22H58.46a.22.22,0,0,1-.13,0,.21.21,0,0,1-.08-.11ZM53,60.24h3.39l-.3-1c-.12-.36-.24-.74-.37-1.15s-.25-.81-.38-1.21-.25-.8-.35-1.18-.21-.72-.29-1h0a16.52,16.52,0,0,1-.45,1.71c-.2.64-.41,1.3-.61,2S53.19,59.67,53,60.24Z"/><path class="cls-2" d="M69.25,61.66H65a2.92,2.92,0,0,0,.41,1.18,2.22,2.22,0,0,0,1,.8,4.16,4.16,0,0,0,1.7.33,7.88,7.88,0,0,0,1.38-.15,5.34,5.34,0,0,0,1.19-.31c.07-.06.11,0,.11.11v2a.32.32,0,0,1,0,.16.28.28,0,0,1-.09.1,5.66,5.66,0,0,1-1.33.4,9.88,9.88,0,0,1-1.88.16A6.21,6.21,0,0,1,64.9,66a4.7,4.7,0,0,1-1.67-1.26A5,5,0,0,1,62.31,63,7,7,0,0,1,62,61.06,6.6,6.6,0,0,1,62.37,59a5.42,5.42,0,0,1,1-1.81A4.73,4.73,0,0,1,65,55.87a5.12,5.12,0,0,1,2.22-.41,4.9,4.9,0,0,1,2.07.4,3.75,3.75,0,0,1,1.4,1.07,4.8,4.8,0,0,1,.79,1.5,5.34,5.34,0,0,1,.26,1.63c0,.31,0,.6,0,.86s0,.44-.05.55a.19.19,0,0,1-.07.12.15.15,0,0,1-.13,0,3.15,3.15,0,0,0-.44,0l-.77,0C69.91,61.71,69.59,61.66,69.25,61.66ZM65,59.71h3.56a.67.67,0,0,0,.31-.1v-.13a1.57,1.57,0,0,0-.08-.49,1.76,1.76,0,0,0-1.74-1.22,1.85,1.85,0,0,0-1.76,1,3.17,3.17,0,0,0-.29,1Z"/><path class="cls-3" d="M96.3,60A36.3,36.3,0,1,1,38.62,30.74"/></svg>