<svg id="Layer_1" data-name="Layer 1" xmlns="http://www.w3.org/2000/svg" viewBox="0 0 240 240"><defs><style>.cls-1{fill:#300;}.cls-2{fill:#ff9a00;}</style></defs><g id="Illustrator"><path id="_16" data-name=" 16" class="cls-1" d="M37.49,0h165A37.47,37.47,0,0,1,240,37.46V202.54A37.47,37.47,0,0,1,202.51,240h-165A37.47,37.47,0,0,1,0,202.54v-165A37.48,37.48,0,0,1,37.49,0Z"/><path id="_30" data-name=" 30" class="cls-2" d="M117,146.08H80.4l-7.51,24.45A1.89,1.89,0,0,1,71,171.94H52.39c-1.07,0-1.41-.56-1.13-1.75L82.88,78.84c.34-1,.62-2,1-3.27a22,22,0,0,0,.62-5.42A1,1,0,0,1,85.31,69h25.52c.73,0,1.18.28,1.24.79L148.14,170.3c.34,1.08,0,1.58-1,1.58h-20.6a1.47,1.47,0,0,1-1.58-1.12ZM85.93,129.2H112.8c-.62-2.09-2.82-7-3.67-9.65s-2-4.74-2.93-7.74-1.92-6-2.88-9-1.81-5.93-2.66-8.75-1.52-5.36-2.14-7.68h-.17c-.9,4.29-2,8.53-3.33,12.7-1.47,4.75-3,9.6-4.52,14.57S87.4,125,85.93,129.2Z"/><path id="_31" data-name=" 31" class="cls-2" d="M169.71,85.67a11.59,11.59,0,0,1-8.75-3.5,12.64,12.64,0,0,1-3.33-9,11.7,11.7,0,0,1,3.56-8.81,13.38,13.38,0,0,1,17.78,0,12.3,12.3,0,0,1,3.27,8.81,12.43,12.43,0,0,1-3.38,9A12.29,12.29,0,0,1,169.71,85.67Zm-10.27,84.75V97.93c0-1,.39-1.42,1.24-1.42h18c.84,0,1.24.46,1.24,1.42v72.49c0,1.07-.4,1.58-1.24,1.58H160.85C159.94,172,159.44,171.49,159.44,170.42Z"/></g></svg>