<svg id="Layer_1" data-name="Layer 1" xmlns="http://www.w3.org/2000/svg" xmlns:xlink="http://www.w3.org/1999/xlink" viewBox="0 0 120 120"><defs><style>.cls-1{fill:#2d0e0f;}.cls-2{fill:none;stroke-linecap:round;stroke-miterlimit:10;stroke-width:5px;stroke:url(#linear-gradient);}.cls-3{fill:#f4991c;}</style><linearGradient id="linear-gradient" x1="21.2" y1="60.14" x2="98.8" y2="59.86" gradientUnits="userSpaceOnUse"><stop offset="0" stop-color="#6bbfa2"/><stop offset="1" stop-color="#8e6aab"/></linearGradient></defs><circle class="cls-1" cx="60" cy="60" r="18.09"/><path class="cls-2" d="M96.3,60A36.31,36.31,0,1,1,82,31.16"/><path id="_30" data-name=" 30" class="cls-3" d="M60,63.05H55.61l-.91,3a.22.22,0,0,1-.23.17H52.22c-.13,0-.17-.07-.14-.21l3.83-11c0-.12.07-.24.12-.39a2.47,2.47,0,0,0,.07-.66.13.13,0,0,1,.1-.14h3.09c.09,0,.14,0,.15.1L63.8,66c0,.13,0,.2-.12.2H61.19A.18.18,0,0,1,61,66Zm-3.76-2h3.25c-.08-.25-.34-.84-.45-1.16s-.24-.58-.35-.94-.23-.73-.35-1.09-.22-.72-.32-1.06-.18-.65-.26-.93h0a15.81,15.81,0,0,1-.4,1.54c-.18.57-.37,1.16-.55,1.76S56.46,60.51,56.28,61Z"/><path id="_31" data-name=" 31" class="cls-3" d="M66.41,55.75a1.41,1.41,0,0,1-1.06-.43,1.53,1.53,0,0,1-.4-1.08,1.43,1.43,0,0,1,.43-1.07,1.63,1.63,0,0,1,2.15,0,1.5,1.5,0,0,1,.4,1.07,1.54,1.54,0,0,1-.41,1.08A1.5,1.5,0,0,1,66.41,55.75ZM65.17,66V57.23c0-.12,0-.17.15-.17H67.5c.1,0,.15,0,.15.17V66c0,.13-.05.19-.15.19H65.34C65.23,66.19,65.17,66.13,65.17,66Z"/></svg>