<svg id="Layer_1" data-name="Layer 1" xmlns="http://www.w3.org/2000/svg" xmlns:xlink="http://www.w3.org/1999/xlink" viewBox="0 0 120 120"><defs><style>.cls-1{fill:none;stroke-linecap:round;stroke-miterlimit:10;stroke-width:5px;stroke:url(#linear-gradient);}.cls-2{fill:#005486;}.cls-3{fill:#ee712e;}</style><linearGradient id="linear-gradient" x1="21.21" y1="63.63" x2="98.81" y2="63.34" gradientUnits="userSpaceOnUse"><stop offset="0" stop-color="#6bbfa2"/><stop offset="1" stop-color="#8e6aab"/></linearGradient></defs><path class="cls-1" d="M96.3,60A36.3,36.3,0,1,1,38.62,30.74"/><path class="cls-2" d="M59.41,62.06a4.84,4.84,0,0,1,1.75-3.41,5.94,5.94,0,0,1,7.52,0,4.84,4.84,0,0,1,1.75,3.41A4.7,4.7,0,0,1,69,65.72a5.92,5.92,0,0,1-8.09,0A4.74,4.74,0,0,1,59.41,62.06Z"/><path class="cls-3" d="M50.62,64.82a10.82,10.82,0,0,0,.43,2.38,12.76,12.76,0,0,0,2.71,4.69,13.82,13.82,0,0,0,4.75,3.4,15.5,15.5,0,0,0,12.45,0,13.88,13.88,0,0,0,4.74-3.42,12.53,12.53,0,0,0,2.71-4.7,11.66,11.66,0,0,0,.51-2.63,11.91,11.91,0,0,0-.08-2.6,12.32,12.32,0,0,0-1.72-4.73A13.36,13.36,0,0,0,74,53.72h0L61.2,43.92l0,0a2.84,2.84,0,0,0-3.16,0,1.44,1.44,0,0,0-.21,2.41h0l5.32,4.33-16.22,0h0a2.93,2.93,0,0,0-2.88,2c-.26,1.11.65,2.07,2,2.07h8.22L39.57,66l0,0c-1.39,1.07-1.84,2.83-1,4s2.76,1.13,4.16,0l8-6.56a13.57,13.57,0,0,0-.11,1.42Zm20.58,3a9.26,9.26,0,0,1-12.92,0A7.77,7.77,0,0,1,56.51,65a7.26,7.26,0,0,1,.48-6,7.86,7.86,0,0,1,2-2.33,9.33,9.33,0,0,1,11.57,0,8.28,8.28,0,0,1,2,2.33,7.41,7.41,0,0,1,.88,2.9A7.22,7.22,0,0,1,73,65a7.72,7.72,0,0,1-1.75,2.76Z"/></svg>