<svg id="Layer_1" data-name="Layer 1" xmlns="http://www.w3.org/2000/svg" viewBox="0 0 240 240"><defs><style>.cls-1{fill:#005385;}.cls-2{fill:#ff7021;}</style></defs><path class="cls-1" d="M125,131.81a27.65,27.65,0,0,1,10-19.51,34,34,0,0,1,43,0,27.78,27.78,0,0,1,10,19.51,27,27,0,0,1-8.41,20.93,33.85,33.85,0,0,1-46.23,0A27.21,27.21,0,0,1,125,131.81Z"/><path class="cls-2" d="M74.77,147.56a58.07,58.07,0,0,0,2.48,13.6A72,72,0,0,0,92.73,188a79.87,79.87,0,0,0,27.11,19.45,88.81,88.81,0,0,0,71.21-.12,80.56,80.56,0,0,0,27.1-19.56,72.65,72.65,0,0,0,15.49-26.88,67.51,67.51,0,0,0,2.91-15,68.74,68.74,0,0,0-.46-14.9,69.49,69.49,0,0,0-9.87-27,75.85,75.85,0,0,0-18-19.88h0l-73-56a.73.73,0,0,0-.18-.14c-4.8-3.67-12.83-3.67-18.1,0s-5.94,9.86-1.2,13.77h0l30.43,24.74-92.73.09h-.12c-7.65,0-15,5-16.47,11.38S40.56,89.77,48.51,89.8v0l47-.09-83.9,64.4-.32.23C3.36,160.43.82,170.5,5.8,176.88s15.81,6.49,23.82,0l45.76-37.47a71.85,71.85,0,0,0-.61,8.12Zm117.62,16.92a52.9,52.9,0,0,1-73.86.11,44.15,44.15,0,0,1-10.1-15.78,41.4,41.4,0,0,1,2.73-34.21,45.75,45.75,0,0,1,11.24-13.33,53.28,53.28,0,0,1,66.09-.09,45.72,45.72,0,0,1,11.21,13.31,41.67,41.67,0,0,1,5.06,16.59,41,41,0,0,1-2.33,17.65,44.19,44.19,0,0,1-10,15.75Z"/></svg>