<svg id="Layer_1" data-name="Layer 1" xmlns="http://www.w3.org/2000/svg" xmlns:xlink="http://www.w3.org/1999/xlink" viewBox="0 0 120 120"><defs><style>.cls-1{fill:#e54b1d;}.cls-2{fill:#ee704a;}.cls-3{fill:#59529f;}.cls-4{fill:#69b76b;}.cls-5{fill:#44b2e6;}.cls-6{fill:none;stroke-linecap:round;stroke-miterlimit:10;stroke-width:5px;stroke:url(#linear-gradient);}</style><linearGradient id="linear-gradient" x1="21.2" y1="60.14" x2="98.8" y2="59.86" gradientUnits="userSpaceOnUse"><stop offset="0" stop-color="#6bbfa2"/><stop offset="1" stop-color="#8e6aab"/></linearGradient></defs><path class="cls-1" d="M55,54.79a5.22,5.22,0,0,1-4.14-3.5,5.1,5.1,0,0,1,4.72-6.74c1.75,0,3.5,0,5.26,0a1.23,1.23,0,0,1,.24,1v8.34a1.55,1.55,0,0,1-.18.92,1,1,0,0,1-.81.24H55.7A.92.92,0,0,1,55,54.79Z"/><path class="cls-2" d="M60.77,54.78l0-10.22c1.73,0,3.46,0,5.19,0a5.13,5.13,0,0,1,1.22,10.1l-.48.15c-.53.39-1.13.16-1.7.22-1.34-.06-2.7.11-4-.07A.44.44,0,0,1,60.77,54.78Z"/><path class="cls-3" d="M55,54.79h5.81l0,0a1.28,1.28,0,0,1,.22,1c0,1,0,2.07,0,3.11a4.59,4.59,0,0,1-.2,2.08l0,4.09a1,1,0,0,1-.74.22q-2.17,0-4.35,0a.94.94,0,0,1-.75-.23,5.72,5.72,0,0,1-3.22-1.86A5.15,5.15,0,0,1,54.33,55Z"/><path class="cls-4" d="M54.94,65.05h5.84c0,1.75,0,3.51,0,5.26a5.13,5.13,0,1,1-6.48-5.08Z"/><path class="cls-5" d="M60.83,61V58.88a4.7,4.7,0,0,1,4.24-4.06l1.66,0a6.91,6.91,0,0,1,2.65,1.33,5.13,5.13,0,1,1-8.3,5.44C61,61.36,61,61.12,60.83,61Z"/><path class="cls-6" d="M96.3,60A36.31,36.31,0,1,1,82,31.16"/></svg>