<svg id="Layer_1" data-name="Layer 1" xmlns="http://www.w3.org/2000/svg" xmlns:xlink="http://www.w3.org/1999/xlink" viewBox="0 0 120 120"><defs><style>.cls-1{fill:none;stroke-linecap:round;stroke-miterlimit:10;stroke-width:5px;stroke:url(#linear-gradient);}.cls-2{fill:#e44d26;}.cls-3{fill:#f16529;}.cls-4{fill:#ebebeb;}.cls-5{fill:#fff;}</style><linearGradient id="linear-gradient" x1="21.21" y1="56.23" x2="98.81" y2="56.52" gradientTransform="matrix(1, 0, 0, -1, 0, 119.89)" gradientUnits="userSpaceOnUse"><stop offset="0" stop-color="#6bbfa2"/><stop offset="1" stop-color="#8e6aab"/></linearGradient></defs><path class="cls-1" d="M96.3,60A36.3,36.3,0,1,1,38.62,30.74"/><path class="cls-2" d="M74.41,46.05l-2.63,29.4L60,78.72,48.22,75.46,45.59,46.05Z"/><path class="cls-3" d="M60,76.22l9.53-2.64,2.25-25.13H60Z"/><path class="cls-4" d="M54.9,55.67H60V52.06H51L51,53,51.93,63H60V59.36H55.23Zm.81,9.1H52.09l.5,5.66,7.39,2h0V68.73h0l-4-1.08-.26-2.88Z"/><path class="cls-5" d="M60,63h4.44L64,67.64l-4,1.09v3.75l7.39-2,.06-.61.84-9.49.09-1H60V63Zm0-7.31H68.7l.07-.82L68.94,53l.08-1H60v3.6Z"/></svg>