<svg id="Layer_1" data-name="Layer 1" xmlns="http://www.w3.org/2000/svg" xmlns:xlink="http://www.w3.org/1999/xlink" viewBox="0 0 120 120"><defs><style>.cls-1{fill:none;stroke-linecap:round;stroke-miterlimit:10;stroke-width:5px;stroke:url(#linear-gradient);}.cls-2{fill:#e9ca32;}.cls-3{fill:#ffde25;}.cls-4{fill:#fff;}</style><linearGradient id="linear-gradient" x1="21.21" y1="56.23" x2="98.81" y2="56.52" gradientTransform="matrix(1, 0, 0, -1, 0, 119.89)" gradientUnits="userSpaceOnUse"><stop offset="0" stop-color="#6bbfa2"/><stop offset="1" stop-color="#8e6aab"/></linearGradient></defs><path class="cls-1" d="M96.3,60A36.3,36.3,0,1,1,38.62,30.74"/><path class="cls-2" d="M48.08,75.34,45.69,46.05l28.62.05L71.78,75.34,60.11,78.72Z"/><path class="cls-3" d="M60.11,75.89v-27l11.79,0-2.1,24.2Z"/><path class="cls-4" d="M58.85,52.05H55.73v18L53.3,69.6V67.17l-2.88-.46v5.43l8.43,2.19Zm2.33,0h8.63l-.57,3.45H64.48v5.67h4.76L68.66,72.6l-7.48,1.73V70.75L66.23,69l.3-4.73-5.35.77Z"/></svg>