<svg id="Layer_1" data-name="Layer 1" xmlns="http://www.w3.org/2000/svg" viewBox="0 0 240 240"><defs><style>.cls-1{fill:#00005b;}.cls-2{fill:#99f;}</style></defs><path class="cls-1" d="M42.51,3h155A42.47,42.47,0,0,1,240,45.53V194.47A42.47,42.47,0,0,1,197.49,237h-155A42.47,42.47,0,0,1,0,194.47V45.53A42.47,42.47,0,0,1,42.51,3Z"/><path class="cls-2" d="M57,167.1V64.21c0-.73.32-1.13,1-1.13,1.69,0,3.3,0,5.63-.08s4.91-.08,7.57-.16,5.64-.08,8.7-.16S86,62.6,89,62.6c8.22,0,15,1,20.61,3.06a35.29,35.29,0,0,1,13.37,8.21,31.77,31.77,0,0,1,7.33,11.43,37.86,37.86,0,0,1,2.33,13c0,8.62-2,15.7-6,21.26a33.53,33.53,0,0,1-16.1,12.15c-6.76,2.5-14.33,3.39-22.46,3.39-2.42,0-4,0-5-.09s-2.42-.08-4.27-.08V167a1.21,1.21,0,0,1-1.13,1.37H58.21c-.81,0-1.21-.41-1.21-1.29ZM78.74,82.4V116c1.37.09,2.74.17,3.86.17h5.32a37.28,37.28,0,0,0,11.51-1.78,16.87,16.87,0,0,0,8.21-5.31c2.09-2.5,3.06-5.88,3.06-10.3a16.9,16.9,0,0,0-2.33-8.94,14.8,14.8,0,0,0-7-5.72,29.32,29.32,0,0,0-11.83-2c-2.58,0-4.91,0-6.77.08s-3.3.16-4,.24Z"/><path class="cls-2" d="M146.53,88.2H164a2.32,2.32,0,0,1,2.09,1.61,9,9,0,0,1,.57,2.49c.16,1,.4,2.1.48,3.06.08,1.13.16,2.34.16,3.63A38.47,38.47,0,0,1,178,90.37a31.26,31.26,0,0,1,15.21-3.86,1.21,1.21,0,0,1,1.37,1.13v19.88c0,.81-.48,1.13-1.61,1.13a44.12,44.12,0,0,0-10.79,1,38.16,38.16,0,0,0-8.37,2.74,14.48,14.48,0,0,0-5.07,3.71v51c0,1-.4,1.37-1.29,1.37H147.74a1.4,1.4,0,0,1-1.61-1.21V111.39c0-2.42,0-4.92-.09-7.49s-.08-5.24-.16-7.81a62.46,62.46,0,0,0-.4-6.76,1,1,0,0,1,.73-1.13.24.24,0,0,1,.32,0Z"/></svg>