<svg id="Layer_1" data-name="Layer 1" xmlns="http://www.w3.org/2000/svg" xmlns:xlink="http://www.w3.org/1999/xlink" viewBox="0 0 120 120"><defs><style>.cls-1{fill:#20244d;}.cls-2{fill:none;stroke-linecap:round;stroke-miterlimit:10;stroke-width:5px;stroke:url(#linear-gradient);}.cls-3{fill:#9294c9;}</style><linearGradient id="linear-gradient" x1="21.21" y1="63.63" x2="98.81" y2="63.34" gradientUnits="userSpaceOnUse"><stop offset="0" stop-color="#6bbfa2"/><stop offset="1" stop-color="#8e6aab"/></linearGradient></defs><circle class="cls-1" cx="60" cy="60" r="18.09"/><path class="cls-2" d="M96.3,60A36.3,36.3,0,1,1,38.62,30.74"/><path class="cls-3" d="M51.27,66.88V53.15c0-.1,0-.15.14-.15h.75l1,0,1.16,0h1.21a8.11,8.11,0,0,1,2.75.4,4.75,4.75,0,0,1,1.79,1.1,4.2,4.2,0,0,1,1,1.52,5.2,5.2,0,0,1,.32,1.74,4.72,4.72,0,0,1-.81,2.84,4.53,4.53,0,0,1-2.14,1.62,8.78,8.78,0,0,1-3,.45H54.18v4.28a.16.16,0,0,1-.14.18H51.43a.15.15,0,0,1-.16-.17Zm2.9-11.3v4.48l.52,0h.71a4.66,4.66,0,0,0,1.53-.23,2.31,2.31,0,0,0,1.1-.71,2.08,2.08,0,0,0,.41-1.38,2.25,2.25,0,0,0-.31-1.19,2,2,0,0,0-.94-.76,3.87,3.87,0,0,0-1.58-.27h-.9l-.53,0Z"/><path class="cls-3" d="M63.22,56.35h2.33a.31.31,0,0,1,.28.22,1.14,1.14,0,0,1,.08.33c0,.13,0,.28.06.41s0,.31,0,.48a5.32,5.32,0,0,1,1.43-1.15,4.11,4.11,0,0,1,2-.51.15.15,0,0,1,.18.13v2.67c0,.11-.06.15-.21.15a6.28,6.28,0,0,0-1.44.13,4.91,4.91,0,0,0-1.12.37,1.94,1.94,0,0,0-.68.49v6.81c0,.13-.05.18-.17.18H63.38a.18.18,0,0,1-.21-.15h0V59.45c0-.33,0-.66,0-1s0-.7,0-1.05,0-.6-.05-.9a.13.13,0,0,1,.1-.15Z"/></svg>