<svg id="Layer_1" data-name="Layer 1" xmlns="http://www.w3.org/2000/svg" viewBox="0 0 240 240"><defs><style>.cls-1{fill:#001e36;}.cls-2{fill:#31a8ff;}</style></defs><g id="Layer_2" data-name="Layer 2"><g id="Surfaces"><g id="Photo_Surface" data-name="Photo Surface"><g id="Outline_no_shadow" data-name="Outline no shadow"><path class="cls-1" d="M42.5,3h155A42.49,42.49,0,0,1,240,45.49v149A42.49,42.49,0,0,1,197.5,237H42.5A42.49,42.49,0,0,1,0,194.51v-149A42.49,42.49,0,0,1,42.5,3Z"/></g></g></g><g id="Outlined_Mnemonics_Logos" data-name="Outlined Mnemonics Logos"><g id="Ps"><path class="cls-2" d="M54,167.07V64.18c0-.68.28-1.08,1-1.08,1.7,0,3.28,0,5.59-.11s4.91-.11,7.62-.22,5.59-.12,8.69-.23,6.1-.11,9.09-.11c8.19,0,15,1,20.6,3.1A35.48,35.48,0,0,1,120,73.72a31.43,31.43,0,0,1,7.28,11.4,37.51,37.51,0,0,1,2.32,13c0,8.58-2,15.69-6,21.28a34.16,34.16,0,0,1-16.08,12.19C100.75,134.05,93.25,135,85,135c-2.42,0-4,0-5-.12s-2.43-.11-4.29-.11v32.12a1.25,1.25,0,0,1-1.07,1.41H55.2C54.41,168.37,54,168,54,167.07ZM75.8,82.41V116c1.42.12,2.71.23,3.9.23H85a37.94,37.94,0,0,0,11.52-1.81,17.19,17.19,0,0,0,8.18-5.3c2.09-2.49,3.11-5.93,3.11-10.28a16.08,16.08,0,0,0-2.32-8.91,14.74,14.74,0,0,0-7-5.71,28.77,28.77,0,0,0-11.79-2c-2.6,0-4.91,0-6.78.11a17.82,17.82,0,0,0-4.12.06Z"/><path class="cls-2" d="M192,109.9a35.43,35.43,0,0,0-9.59-3.39,53.57,53.57,0,0,0-11.18-1.3,21.33,21.33,0,0,0-6,.68,5.15,5.15,0,0,0-3.11,2,5.3,5.3,0,0,0-.79,2.71,4.3,4.3,0,0,0,1,2.6,12.28,12.28,0,0,0,3.39,2.71c2.31,1.18,4.68,2.31,7.11,3.27a73,73,0,0,1,15.41,7.28,23.79,23.79,0,0,1,7.9,8.3A21.66,21.66,0,0,1,198.51,145a23.22,23.22,0,0,1-3.89,13.33,25.35,25.35,0,0,1-11.18,8.91c-4.91,2.09-10.89,3.22-18.12,3.22a68.49,68.49,0,0,1-13.6-1.3A40.56,40.56,0,0,1,141.51,166a2,2,0,0,1-1.08-1.92V146.64a1.2,1.2,0,0,1,.4-.9.7.7,0,0,1,.9.11,42.67,42.67,0,0,0,12.42,4.91,45.52,45.52,0,0,0,11.8,1.53c3.78,0,6.49-.51,8.29-1.42A4.67,4.67,0,0,0,177,146.7c0-1.41-.79-2.71-2.43-4s-4.91-2.82-9.82-4.68a60.28,60.28,0,0,1-14.22-7.23,25.84,25.84,0,0,1-7.62-8.52A21.6,21.6,0,0,1,140.55,112,23.38,23.38,0,0,1,143.93,100a24.45,24.45,0,0,1,10.5-9.2c4.69-2.43,10.61-3.5,17.72-3.5a82.39,82.39,0,0,1,12.42.91,32.92,32.92,0,0,1,8.58,2.31,2,2,0,0,1,1,.9,4.53,4.53,0,0,1,.22,1.19v16.31a1.38,1.38,0,0,1-.5,1A2.61,2.61,0,0,1,192,109.9Z"/></g></g></g></svg>