<svg id="Layer_1" data-name="Layer 1" xmlns="http://www.w3.org/2000/svg" xmlns:xlink="http://www.w3.org/1999/xlink" viewBox="0 0 120 120"><defs><style>.cls-1{fill:#132035;}.cls-2{fill:none;stroke-linecap:round;stroke-miterlimit:10;stroke-width:5px;stroke:url(#linear-gradient);}.cls-3{fill:#53a0d8;}</style><linearGradient id="linear-gradient" x1="21.2" y1="60.14" x2="98.8" y2="59.86" gradientUnits="userSpaceOnUse"><stop offset="0" stop-color="#6bbfa2"/><stop offset="1" stop-color="#8e6aab"/></linearGradient></defs><circle class="cls-1" cx="60" cy="60" r="18.09"/><path class="cls-2" d="M96.3,60A36.31,36.31,0,1,1,82,31.16"/><g id="Outlined_Mnemonics_Logos" data-name="Outlined Mnemonics Logos"><g id="Ps"><path class="cls-3" d="M50.14,66.68V52.63c0-.09,0-.15.13-.15H51c.32,0,.68,0,1,0s.76,0,1.18,0,.83,0,1.24,0a8.16,8.16,0,0,1,2.81.42,5,5,0,0,1,1.84,1.12,4.2,4.2,0,0,1,1,1.56,5.13,5.13,0,0,1,.32,1.77,4.93,4.93,0,0,1-.82,2.91,4.71,4.71,0,0,1-2.2,1.66,8.83,8.83,0,0,1-3.07.47,6,6,0,0,1-.69,0H53.1v4.38a.16.16,0,0,1-.15.19H50.3C50.19,66.85,50.14,66.8,50.14,66.68Zm3-11.56V59.7c.2,0,.37,0,.53,0h.73a5.6,5.6,0,0,0,1.57-.25,2.44,2.44,0,0,0,1.12-.72,2.16,2.16,0,0,0,.42-1.41,2.06,2.06,0,0,0-.32-1.21,1.91,1.91,0,0,0-.95-.78,3.86,3.86,0,0,0-1.61-.28c-.36,0-.67,0-.93,0a2.11,2.11,0,0,0-.56,0Z"/><path class="cls-3" d="M69,58.87a5.24,5.24,0,0,0-1.31-.46,7.89,7.89,0,0,0-1.53-.18,2.83,2.83,0,0,0-.82.09.72.72,0,0,0-.42.28.7.7,0,0,0-.11.37.56.56,0,0,0,.13.35,1.67,1.67,0,0,0,.47.37c.31.16.64.32,1,.45a10.08,10.08,0,0,1,2.1,1,3.27,3.27,0,0,1,1.08,1.14,2.93,2.93,0,0,1,.32,1.39,3.08,3.08,0,0,1-.53,1.82,3.42,3.42,0,0,1-1.52,1.22,6.22,6.22,0,0,1-2.48.44A9.59,9.59,0,0,1,63.48,67a5.28,5.28,0,0,1-1.4-.43.3.3,0,0,1-.15-.26V63.89a.18.18,0,0,1,.06-.13.11.11,0,0,1,.12,0,5.8,5.8,0,0,0,1.7.67,6.24,6.24,0,0,0,1.61.21,2.61,2.61,0,0,0,1.13-.19.66.66,0,0,0,.38-.57.72.72,0,0,0-.33-.55,5.57,5.57,0,0,0-1.34-.64,8,8,0,0,1-2-1,3.51,3.51,0,0,1-1-1.16,2.94,2.94,0,0,1-.32-1.4,3.15,3.15,0,0,1,.46-1.64,3.38,3.38,0,0,1,1.44-1.26,5.25,5.25,0,0,1,2.42-.47,10.67,10.67,0,0,1,1.69.12,4.32,4.32,0,0,1,1.17.32.24.24,0,0,1,.14.12.45.45,0,0,1,0,.16v2.23a.17.17,0,0,1-.07.13A.36.36,0,0,1,69,58.87Z"/></g></g></svg>